<?xml version="1.0" standalone="no"?>
<!DOCTYPE svg PUBLIC "-//W3C//DTD SVG 1.1//EN" "http://www.w3.org/Graphics/SVG/1.1/DTD/svg11.dtd">
<svg width="337mm" height="132mm" viewBox="-57 -120 337 132" xmlns="http://www.w3.org/2000/svg" version="1.1">
<title>OpenSCAD Model</title>
<path d="
M 131.045,-0.0547791 L 132.079,-0.218521 L 133.09,-0.489426 L 134.067,-0.864532 L 135,-1.33974 L 135.878,-1.90982
 L 136.691,-2.56854 L 137.431,-3.30869 L 138.09,-4.12215 L 138.66,-5 L 139.135,-5.93263 L 139.511,-6.90982
 L 139.781,-7.92087 L 139.945,-8.95471 L 140,-10 L 140,-110 L 139.945,-111.045 L 139.781,-112.079
 L 139.511,-113.09 L 139.135,-114.067 L 138.66,-115 L 138.09,-115.878 L 137.431,-116.691 L 136.691,-117.431
 L 135.878,-118.09 L 135,-118.66 L 134.067,-119.135 L 133.09,-119.511 L 132.079,-119.781 L 131.045,-119.945
 L 130,-120 L 30,-120 L 28.9547,-119.945 L 27.9209,-119.781 L 26.9098,-119.511 L 25.9326,-119.135
 L 25,-118.66 L 24.1221,-118.09 L 23.3087,-117.431 L 22.5685,-116.691 L 21.9098,-115.878 L 21.3397,-115
 L 20.8645,-114.067 L 20.4894,-113.09 L 20.2185,-112.079 L 20.0548,-111.045 L 20,-110 L 20,-10
 L 20.0548,-8.95471 L 20.2185,-7.92087 L 20.4894,-6.90982 L 20.8645,-5.93263 L 21.3397,-5 L 21.9098,-4.12215
 L 22.5685,-3.30869 L 23.3087,-2.56854 L 24.1221,-1.90982 L 25,-1.33974 L 25.9326,-0.864532 L 26.9098,-0.489426
 L 27.9209,-0.218521 L 28.9547,-0.0547791 L 30,-0 L 130,-0 z
M 129.571,-105.922 L 129.148,-105.99 L 128.733,-106.101 L 128.332,-106.254 L 127.95,-106.449 L 127.59,-106.683
 L 127.257,-106.953 L 126.953,-107.257 L 126.683,-107.59 L 126.449,-107.95 L 126.254,-108.332 L 126.101,-108.733
 L 125.99,-109.148 L 125.922,-109.571 L 125.9,-110 L 125.922,-110.429 L 125.99,-110.852 L 126.101,-111.267
 L 126.254,-111.668 L 126.449,-112.05 L 126.683,-112.41 L 126.953,-112.743 L 127.257,-113.047 L 127.59,-113.317
 L 127.95,-113.551 L 128.332,-113.746 L 128.733,-113.899 L 129.148,-114.01 L 129.571,-114.078 L 130,-114.1
 L 130.429,-114.078 L 130.852,-114.01 L 131.267,-113.899 L 131.668,-113.746 L 132.05,-113.551 L 132.41,-113.317
 L 132.743,-113.047 L 133.047,-112.743 L 133.317,-112.41 L 133.551,-112.05 L 133.746,-111.668 L 133.899,-111.267
 L 134.01,-110.852 L 134.078,-110.429 L 134.1,-110 L 134.078,-109.571 L 134.01,-109.148 L 133.899,-108.733
 L 133.746,-108.332 L 133.551,-107.95 L 133.317,-107.59 L 133.047,-107.257 L 132.743,-106.953 L 132.41,-106.683
 L 132.05,-106.449 L 131.668,-106.254 L 131.267,-106.101 L 130.852,-105.99 L 130.429,-105.922 L 130,-105.9
 z
M 29.5714,-105.922 L 29.1476,-105.99 L 28.733,-106.101 L 28.3324,-106.254 L 27.95,-106.449 L 27.5901,-106.683
 L 27.2566,-106.953 L 26.9531,-107.257 L 26.683,-107.59 L 26.4493,-107.95 L 26.2545,-108.332 L 26.1007,-108.733
 L 25.9896,-109.148 L 25.9225,-109.571 L 25.9,-110 L 25.9225,-110.429 L 25.9896,-110.852 L 26.1007,-111.267
 L 26.2545,-111.668 L 26.4493,-112.05 L 26.683,-112.41 L 26.9531,-112.743 L 27.2566,-113.047 L 27.5901,-113.317
 L 27.95,-113.551 L 28.3324,-113.746 L 28.733,-113.899 L 29.1476,-114.01 L 29.5714,-114.078 L 30,-114.1
 L 30.4286,-114.078 L 30.8524,-114.01 L 31.267,-113.899 L 31.6676,-113.746 L 32.05,-113.551 L 32.4099,-113.317
 L 32.7434,-113.047 L 33.0469,-112.743 L 33.317,-112.41 L 33.5507,-112.05 L 33.7455,-111.668 L 33.8993,-111.267
 L 34.0104,-110.852 L 34.0775,-110.429 L 34.1,-110 L 34.0775,-109.571 L 34.0104,-109.148 L 33.8993,-108.733
 L 33.7455,-108.332 L 33.5507,-107.95 L 33.317,-107.59 L 33.0469,-107.257 L 32.7434,-106.953 L 32.4099,-106.683
 L 32.05,-106.449 L 31.6676,-106.254 L 31.267,-106.101 L 30.8524,-105.99 L 30.4286,-105.922 L 30,-105.9
 z
M 38,-23 L 38,-77 L 122,-77 L 122,-23 z
M 129.571,-5.92245 L 129.148,-5.98959 L 128.733,-6.10066 L 128.332,-6.25446 L 127.95,-6.4493 L 127.59,-6.68303
 L 127.257,-6.95309 L 126.953,-7.25656 L 126.683,-7.59007 L 126.449,-7.95 L 126.254,-8.33237 L 126.101,-8.73302
 L 125.99,-9.14755 L 125.922,-9.57143 L 125.9,-10 L 125.922,-10.4286 L 125.99,-10.8524 L 126.101,-11.267
 L 126.254,-11.6676 L 126.449,-12.05 L 126.683,-12.4099 L 126.953,-12.7434 L 127.257,-13.0469 L 127.59,-13.317
 L 127.95,-13.5507 L 128.332,-13.7455 L 128.733,-13.8993 L 129.148,-14.0104 L 129.571,-14.0775 L 130,-14.1
 L 130.429,-14.0775 L 130.852,-14.0104 L 131.267,-13.8993 L 131.668,-13.7455 L 132.05,-13.5507 L 132.41,-13.317
 L 132.743,-13.0469 L 133.047,-12.7434 L 133.317,-12.4099 L 133.551,-12.05 L 133.746,-11.6676 L 133.899,-11.267
 L 134.01,-10.8524 L 134.078,-10.4286 L 134.1,-10 L 134.078,-9.57143 L 134.01,-9.14755 L 133.899,-8.73302
 L 133.746,-8.33237 L 133.551,-7.95 L 133.317,-7.59007 L 133.047,-7.25656 L 132.743,-6.95309 L 132.41,-6.68303
 L 132.05,-6.4493 L 131.668,-6.25446 L 131.267,-6.10066 L 130.852,-5.98959 L 130.429,-5.92245 L 130,-5.89999
 z
M 29.5714,-5.92245 L 29.1476,-5.98959 L 28.733,-6.10066 L 28.3324,-6.25446 L 27.95,-6.4493 L 27.5901,-6.68303
 L 27.2566,-6.95309 L 26.9531,-7.25656 L 26.683,-7.59007 L 26.4493,-7.95 L 26.2545,-8.33237 L 26.1007,-8.73302
 L 25.9896,-9.14755 L 25.9225,-9.57143 L 25.9,-10 L 25.9225,-10.4286 L 25.9896,-10.8524 L 26.1007,-11.267
 L 26.2545,-11.6676 L 26.4493,-12.05 L 26.683,-12.4099 L 26.9531,-12.7434 L 27.2566,-13.0469 L 27.5901,-13.317
 L 27.95,-13.5507 L 28.3324,-13.7455 L 28.733,-13.8993 L 29.1476,-14.0104 L 29.5714,-14.0775 L 30,-14.1
 L 30.4286,-14.0775 L 30.8524,-14.0104 L 31.267,-13.8993 L 31.6676,-13.7455 L 32.05,-13.5507 L 32.4099,-13.317
 L 32.7434,-13.0469 L 33.0469,-12.7434 L 33.317,-12.4099 L 33.5507,-12.05 L 33.7455,-11.6676 L 33.8993,-11.267
 L 34.0104,-10.8524 L 34.0775,-10.4286 L 34.1,-10 L 34.0775,-9.57143 L 34.0104,-9.14755 L 33.8993,-8.73302
 L 33.7455,-8.33237 L 33.5507,-7.95 L 33.317,-7.59007 L 33.0469,-7.25656 L 32.7434,-6.95309 L 32.4099,-6.68303
 L 32.05,-6.4493 L 31.6676,-6.25446 L 31.267,-6.10066 L 30.8524,-5.98959 L 30.4286,-5.92245 L 30,-5.89999
 z
M 271.045,-0.0547791 L 272.079,-0.218521 L 273.09,-0.489426 L 274.067,-0.864532 L 275,-1.33974 L 275.878,-1.90982
 L 276.691,-2.56854 L 277.431,-3.30869 L 278.09,-4.12215 L 278.66,-5 L 279.135,-5.93263 L 279.511,-6.90982
 L 279.781,-7.92087 L 279.945,-8.95471 L 280,-10 L 280,-110 L 279.945,-111.045 L 279.781,-112.079
 L 279.511,-113.09 L 279.135,-114.067 L 278.66,-115 L 278.09,-115.878 L 277.431,-116.691 L 276.691,-117.431
 L 275.878,-118.09 L 275,-118.66 L 274.067,-119.135 L 273.09,-119.511 L 272.079,-119.781 L 271.045,-119.945
 L 270,-120 L 170,-120 L 168.955,-119.945 L 167.921,-119.781 L 166.91,-119.511 L 165.933,-119.135
 L 165,-118.66 L 164.122,-118.09 L 163.309,-117.431 L 162.569,-116.691 L 161.91,-115.878 L 161.34,-115
 L 160.865,-114.067 L 160.489,-113.09 L 160.219,-112.079 L 160.055,-111.045 L 160,-110 L 160,-10
 L 160.055,-8.95471 L 160.219,-7.92087 L 160.489,-6.90982 L 160.865,-5.93263 L 161.34,-5 L 161.91,-4.12215
 L 162.569,-3.30869 L 163.309,-2.56854 L 164.122,-1.90982 L 165,-1.33974 L 165.933,-0.864532 L 166.91,-0.489426
 L 167.921,-0.218521 L 168.955,-0.0547791 L 170,-0 L 270,-0 z
M 169.571,-105.922 L 169.148,-105.99 L 168.733,-106.101 L 168.332,-106.254 L 167.95,-106.449 L 167.59,-106.683
 L 167.257,-106.953 L 166.953,-107.257 L 166.683,-107.59 L 166.449,-107.95 L 166.254,-108.332 L 166.101,-108.733
 L 165.99,-109.148 L 165.922,-109.571 L 165.9,-110 L 165.922,-110.429 L 165.99,-110.852 L 166.101,-111.267
 L 166.254,-111.668 L 166.449,-112.05 L 166.683,-112.41 L 166.953,-112.743 L 167.257,-113.047 L 167.59,-113.317
 L 167.95,-113.551 L 168.332,-113.746 L 168.733,-113.899 L 169.148,-114.01 L 169.571,-114.078 L 170,-114.1
 L 170.429,-114.078 L 170.852,-114.01 L 171.267,-113.899 L 171.668,-113.746 L 172.05,-113.551 L 172.41,-113.317
 L 172.743,-113.047 L 173.047,-112.743 L 173.317,-112.41 L 173.551,-112.05 L 173.746,-111.668 L 173.899,-111.267
 L 174.01,-110.852 L 174.078,-110.429 L 174.1,-110 L 174.078,-109.571 L 174.01,-109.148 L 173.899,-108.733
 L 173.746,-108.332 L 173.551,-107.95 L 173.317,-107.59 L 173.047,-107.257 L 172.743,-106.953 L 172.41,-106.683
 L 172.05,-106.449 L 171.668,-106.254 L 171.267,-106.101 L 170.852,-105.99 L 170.429,-105.922 L 170,-105.9
 z
M 269.571,-105.922 L 269.148,-105.99 L 268.733,-106.101 L 268.332,-106.254 L 267.95,-106.449 L 267.59,-106.683
 L 267.257,-106.953 L 266.953,-107.257 L 266.683,-107.59 L 266.449,-107.95 L 266.254,-108.332 L 266.101,-108.733
 L 265.99,-109.148 L 265.922,-109.571 L 265.9,-110 L 265.922,-110.429 L 265.99,-110.852 L 266.101,-111.267
 L 266.254,-111.668 L 266.449,-112.05 L 266.683,-112.41 L 266.953,-112.743 L 267.257,-113.047 L 267.59,-113.317
 L 267.95,-113.551 L 268.332,-113.746 L 268.733,-113.899 L 269.148,-114.01 L 269.571,-114.078 L 270,-114.1
 L 270.429,-114.078 L 270.852,-114.01 L 271.267,-113.899 L 271.668,-113.746 L 272.05,-113.551 L 272.41,-113.317
 L 272.743,-113.047 L 273.047,-112.743 L 273.317,-112.41 L 273.551,-112.05 L 273.746,-111.668 L 273.899,-111.267
 L 274.01,-110.852 L 274.078,-110.429 L 274.1,-110 L 274.078,-109.571 L 274.01,-109.148 L 273.899,-108.733
 L 273.746,-108.332 L 273.551,-107.95 L 273.317,-107.59 L 273.047,-107.257 L 272.743,-106.953 L 272.41,-106.683
 L 272.05,-106.449 L 271.668,-106.254 L 271.267,-106.101 L 270.852,-105.99 L 270.429,-105.922 L 270,-105.9
 z
M 243,-48 L 243,-62 L 257,-62 L 257,-48 z
M 183,-48 L 183,-62 L 197,-62 L 197,-48 z
M 203,-48 L 203,-62 L 217,-62 L 217,-48 z
M 223,-48 L 223,-62 L 237,-62 L 237,-48 z
M 243,-28 L 243,-42 L 257,-42 L 257,-28 z
M 223,-28 L 223,-42 L 237,-42 L 237,-28 z
M 203,-28 L 203,-42 L 217,-42 L 217,-28 z
M 183,-28 L 183,-42 L 197,-42 L 197,-28 z
M 269.571,-5.92245 L 269.148,-5.98959 L 268.733,-6.10066 L 268.332,-6.25446 L 267.95,-6.4493 L 267.59,-6.68303
 L 267.257,-6.95309 L 266.953,-7.25656 L 266.683,-7.59007 L 266.449,-7.95 L 266.254,-8.33237 L 266.101,-8.73302
 L 265.99,-9.14755 L 265.922,-9.57143 L 265.9,-10 L 265.922,-10.4286 L 265.99,-10.8524 L 266.101,-11.267
 L 266.254,-11.6676 L 266.449,-12.05 L 266.683,-12.4099 L 266.953,-12.7434 L 267.257,-13.0469 L 267.59,-13.317
 L 267.95,-13.5507 L 268.332,-13.7455 L 268.733,-13.8993 L 269.148,-14.0104 L 269.571,-14.0775 L 270,-14.1
 L 270.429,-14.0775 L 270.852,-14.0104 L 271.267,-13.8993 L 271.668,-13.7455 L 272.05,-13.5507 L 272.41,-13.317
 L 272.743,-13.0469 L 273.047,-12.7434 L 273.317,-12.4099 L 273.551,-12.05 L 273.746,-11.6676 L 273.899,-11.267
 L 274.01,-10.8524 L 274.078,-10.4286 L 274.1,-10 L 274.078,-9.57143 L 274.01,-9.14755 L 273.899,-8.73302
 L 273.746,-8.33237 L 273.551,-7.95 L 273.317,-7.59007 L 273.047,-7.25656 L 272.743,-6.95309 L 272.41,-6.68303
 L 272.05,-6.4493 L 271.668,-6.25446 L 271.267,-6.10066 L 270.852,-5.98959 L 270.429,-5.92245 L 270,-5.89999
 z
M 169.571,-5.92245 L 169.148,-5.98959 L 168.733,-6.10066 L 168.332,-6.25446 L 167.95,-6.4493 L 167.59,-6.68303
 L 167.257,-6.95309 L 166.953,-7.25656 L 166.683,-7.59007 L 166.449,-7.95 L 166.254,-8.33237 L 166.101,-8.73302
 L 165.99,-9.14755 L 165.922,-9.57143 L 165.9,-10 L 165.922,-10.4286 L 165.99,-10.8524 L 166.101,-11.267
 L 166.254,-11.6676 L 166.449,-12.05 L 166.683,-12.4099 L 166.953,-12.7434 L 167.257,-13.0469 L 167.59,-13.317
 L 167.95,-13.5507 L 168.332,-13.7455 L 168.733,-13.8993 L 169.148,-14.0104 L 169.571,-14.0775 L 170,-14.1
 L 170.429,-14.0775 L 170.852,-14.0104 L 171.267,-13.8993 L 171.668,-13.7455 L 172.05,-13.5507 L 172.41,-13.317
 L 172.743,-13.0469 L 173.047,-12.7434 L 173.317,-12.4099 L 173.551,-12.05 L 173.746,-11.6676 L 173.899,-11.267
 L 174.01,-10.8524 L 174.078,-10.4286 L 174.1,-10 L 174.078,-9.57143 L 174.01,-9.14755 L 173.899,-8.73302
 L 173.746,-8.33237 L 173.551,-7.95 L 173.317,-7.59007 L 173.047,-7.25656 L 172.743,-6.95309 L 172.41,-6.68303
 L 172.05,-6.4493 L 171.668,-6.25446 L 171.267,-6.10066 L 170.852,-5.98959 L 170.429,-5.92245 L 170,-5.89999
 z
M -33,-12 L -57,-12 L -57,12 L -33,12 z
M -52,7 L -52,-7 L -38,-7 L -38,7 z
M -18.9547,9.94521 L -17.9209,9.78146 L -16.9098,9.51056 L -15.9326,9.13545 L -15,8.66025 L -14.1222,8.09016
 L -13.3087,7.43144 L -12.5686,6.6913 L -11.9098,5.87784 L -11.3398,5 L -10.8645,4.06735 L -10.4894,3.09016
 L -10.2185,2.07912 L -10.0548,1.04527 L -10,-0 L -10.0548,-1.04527 L -10.2185,-2.07912 L -10.4894,-3.09016
 L -10.8645,-4.06735 L -11.3398,-5 L -11.9098,-5.87784 L -12.5686,-6.6913 L -13.3087,-7.43144 L -14.1222,-8.09016
 L -15,-8.66025 L -15.9326,-9.13545 L -16.9098,-9.51056 L -17.9209,-9.78146 L -18.9547,-9.94521 L -20,-10
 L -21.0453,-9.94521 L -22.0791,-9.78146 L -23.0902,-9.51056 L -24.0674,-9.13545 L -25,-8.66025 L -25.8778,-8.09016
 L -26.6913,-7.43144 L -27.4314,-6.6913 L -28.0902,-5.87784 L -28.6602,-5 L -29.1355,-4.06735 L -29.5106,-3.09016
 L -29.7815,-2.07912 L -29.9452,-1.04527 L -30,-0 L -29.9452,1.04527 L -29.7815,2.07912 L -29.5106,3.09016
 L -29.1355,4.06735 L -28.6602,5 L -28.0902,5.87784 L -27.4314,6.6913 L -26.6913,7.43144 L -25.8778,8.09016
 L -25,8.66025 L -24.0674,9.13545 L -23.0902,9.51056 L -22.0791,9.78146 L -21.0453,9.94521 L -20,10
 z
M -20.4286,4.07753 L -20.8524,4.01039 L -21.267,3.89932 L -21.6676,3.74553 L -22.05,3.55069 L -22.4099,3.31696
 L -22.7434,3.04689 L -23.0469,2.74342 L -23.317,2.40991 L -23.5507,2.04999 L -23.7455,1.66762 L -23.8993,1.26697
 L -24.0104,0.852432 L -24.0775,0.428558 L -24.1,-0 L -24.0775,-0.428558 L -24.0104,-0.852432 L -23.8993,-1.26697
 L -23.7455,-1.66762 L -23.5507,-2.04999 L -23.317,-2.40991 L -23.0469,-2.74342 L -22.7434,-3.04689 L -22.4099,-3.31696
 L -22.05,-3.55069 L -21.6676,-3.74553 L -21.267,-3.89932 L -20.8524,-4.01039 L -20.4286,-4.07753 L -20,-4.09999
 L -19.5714,-4.07753 L -19.1476,-4.01039 L -18.733,-3.89932 L -18.3324,-3.74553 L -17.95,-3.55069 L -17.5901,-3.31696
 L -17.2566,-3.04689 L -16.9531,-2.74342 L -16.683,-2.40991 L -16.4493,-2.04999 L -16.2545,-1.66762 L -16.1007,-1.26697
 L -15.9896,-0.852432 L -15.9225,-0.428558 L -15.9,-0 L -15.9225,0.428558 L -15.9896,0.852432 L -16.1007,1.26697
 L -16.2545,1.66762 L -16.4493,2.04999 L -16.683,2.40991 L -16.9531,2.74342 L -17.2566,3.04689 L -17.5901,3.31696
 L -17.95,3.55069 L -18.3324,3.74553 L -18.733,3.89932 L -19.1476,4.01039 L -19.5714,4.07753 L -20,4.09999
 z
M 5,-5 L -5,-5 L -5,5 L 5,5 z
" stroke="black" fill="lightgray" stroke-width="0.5"/>
</svg>
